<svg xmlns="http://www.w3.org/2000/svg" xmlns:xlink="http://www.w3.org/1999/xlink" viewBox="0 0 48 48"><path d="M39 9.864A10.01 10.01 0 0 0 37.982 9 9.947 9.947 0 0 0 32 7c-2.24 0-4.295.753-5.96 2A10.081 10.081 0 0 0 24 11.018 10.055 10.055 0 0 0 21.96 9 9.901 9.901 0 0 0 16 7c-2.246 0-4.312.75-5.98 2A9.82 9.82 0 0 0 9 9.864 9.967 9.967 0 0 0 6 17v.003C6.004 32 22 41 24 41s18-9 18-24c0-2.796-1.15-5.32-3-7.136zM24 37.91c-2.23-.868-9.106-5.242-12.723-12.096C9.907 23.214 9 20.26 9 17.004V17c0-3.86 3.14-7 7-7 2.55 0 4.776 1.376 6 3.42.148.248.29.503.407.77.063.144.115.293.17.442h.012c.203.585.755 1.008 1.41 1.008s1.206-.423 1.41-1.008h.015c.053-.15.105-.298.168-.442.118-.267.26-.522.408-.77 1.224-2.044 3.45-3.42 6-3.42 3.86 0 7 3.14 7 7 0 3.26-.905 6.214-2.277 8.814C33.106 32.668 26.23 37.042 24 37.91z" fill="#FFF"/></svg>