<svg data-name="Layer 1" xmlns="http://www.w3.org/2000/svg" width="83.6" height="90" viewBox="0 0 83.6 90"><title>idea-light</title><path d="M44.2 10.6V2.4a2.45 2.45 0 0 0-4.9 0v8.1h4.9zM24.1 16a31.3 31.3 0 0 1 4.2-2.4l-4.1-7A2.419 2.419 0 1 0 20 9zM6.5 24.2l7 4.1a31.2 31.2 0 0 1 2.4-4.2l-7-4.1a2.419 2.419 0 1 0-2.4 4.2zm69.4 39.7a2.4 2.4 0 0 0 1.2-4.6l-7-4.1a31.2 31.2 0 0 1-2.4 4.2l7 4.1a2.4 2.4 0 0 0 1.2.4zM2.5 44.2h8.1c-.1-.8-.1-1.6-.1-2.4s0-1.6.1-2.4H2.5a2.45 2.45 0 1 0 0 4.9zm70.6-2.4c0 .8 0 1.6-.1 2.4h8.1a2.45 2.45 0 0 0 0-4.9H73c.1.8.1 1.7.1 2.5zM13.6 55.3l-7 4.1A2.419 2.419 0 1 0 9 63.6l7-4.1a31.1 31.1 0 0 1-2.4-4.2zm63.5-31.1a2.444 2.444 0 0 0-2.5-4.2l-7 4.1a31.3 31.3 0 0 1 2.4 4.2zM63.6 8.9a2.419 2.419 0 1 0-4.2-2.4l-4.1 7a31.2 31.2 0 0 1 4.2 2.5zM29.3 69.5a3.9 3.9 0 0 0 .3 1 4.1 4.1 0 0 0 .9 1.2 1.6 1.6 0 0 0 2.6-1.2v-2a51.4 51.4 0 0 0-7.8-17.7 17.8 17.8 0 0 1-3-9.9 18.4 18.4 0 0 1 6.6-14 20 20 0 0 1 12.9-4.7 21.3 21.3 0 0 1 3.6.3 18.9 18.9 0 0 1 15.7 15.3A17.9 17.9 0 0 1 58 51.4 43.3 43.3 0 0 0 50.6 67v3a1.6 1.6 0 0 0 2.8 1 3.9 3.9 0 0 0 .7-1.6 38.3 38.3 0 0 1 7.1-15.7A21.8 21.8 0 0 0 65 37.1a22.8 22.8 0 0 0-18.9-18.4 24.1 24.1 0 0 0-19.7 5.2 22.3 22.3 0 0 0-8 17 21.7 21.7 0 0 0 3.7 12 47.4 47.4 0 0 1 7.2 16.6zm21.6 3.7H32.5a2.2 2.2 0 0 0 0 4.4h18.4a2.2 2.2 0 0 0 0-4.4zm2.4 9a2.2 2.2 0 0 0-2.2-2.2H32.7a2.2 2.2 0 0 0 0 4.4h18.4a2.2 2.2 0 0 0 2.2-2.2zm-5.4 5.9a1.9 1.9 0 0 0-1.9-1.9h-8.9a1.9 1.9 0 0 0 0 3.8H46a1.9 1.9 0 0 0 1.9-1.9z" fill="#fff"/></svg>